<?xml version="1.0" encoding="UTF-8"?>
<svg width="90px" height="74px" viewBox="0 0 90 74" version="1.1" xmlns="http://www.w3.org/2000/svg" xmlns:xlink="http://www.w3.org/1999/xlink">
    <title>noun_Goku_58041</title>
    <g id="Page-1" stroke="none" stroke-width="1" fill="none" fill-rule="evenodd">
        <g id="noun_Goku_58041" fill="#000000" fill-rule="nonzero">
            <path d="M69.902,53.634 L89.953,42.442 L75.783,41.589 L83.929,34.292 L65.792,35.709 C65.792,35.709 65.403,32.841 61.683,29.12 C59.416,26.853 54.316,25.365 54.316,25.365 C54.316,25.365 55.042,16.121 49.87,7.902 C46.596,3.615 39.863,2.481 33.133,0.639 C38.305,15.375 36.392,21.185 36.392,21.185 C36.392,21.185 28.953,12.895 20.593,11.62 C15.706,11.336 5.503,16.721 0.029,20.334 C19.389,30.394 21.515,40.525 21.515,40.525 C14.359,41.162 1.819,48.601 1.819,48.601 C17.263,51.577 22.436,55.26 22.436,55.26 L13.864,60.22 L31.199,61.959 C30.189,61.23 27.985,58.576 27.539,57.065 C27.071,55.479 27.257,50.381 28.849,50.069 C29.676,49.906 30.267,50.291 30.615,50.809 C30.58,50.442 30.565,50.08 30.565,49.721 C30.565,42.139 37.863,36.741 45.429,36.741 C53.351,36.741 62.756,39.522 62.017,47.673 C62.365,47.153 61.179,49.905 62.007,50.069 C63.597,50.382 63.783,55.479 63.316,57.065 C62.845,58.651 60.427,61.52 59.501,62.076 C59.061,62.336 58.738,62.389 58.52,62.373 C58.39,62.934 58.253,63.417 58.112,63.82 L69.903,63.41 L64.449,60.789 L79.752,56.254 L69.902,53.634 Z" id="Path"></path>
            <path d="M45.73,73.646 C45.584,73.646 45.479,73.642 45.426,73.64 C45.374,73.642 45.268,73.646 45.121,73.646 C44.245,73.646 42.593,73.542 41.37,72.865 C37.523,70.728 32.854,65.695 32.373,64.783 C32.159,64.377 31.957,63.797 31.758,63.019 C31.511,62.955 31.254,62.84 30.99,62.687 C29.915,62.045 27.372,59.01 26.856,57.269 C26.456,55.912 26.447,52.045 27.491,50.322 C27.814,49.791 28.223,49.47 28.708,49.375 C29.109,49.297 29.501,49.311 29.856,49.41 C29.949,45.754 31.662,42.367 34.704,39.846 C37.623,37.424 41.531,36.035 45.426,36.035 C52.068,36.035 57.71,37.872 60.521,40.948 C62.142,42.72 62.89,44.882 62.749,47.372 C62.838,47.603 62.77,47.848 62.674,48.195 C62.506,48.799 62.419,49.22 62.411,49.454 C62.779,49.6 63.098,49.892 63.359,50.323 C64.402,52.044 64.394,55.913 63.996,57.267 C63.48,59.011 60.937,62.046 59.863,62.685 C59.597,62.841 59.341,62.956 59.092,63.019 C58.893,63.796 58.692,64.376 58.479,64.782 C58,65.693 53.333,70.726 49.481,72.866 C48.259,73.542 46.607,73.646 45.73,73.646 Z M45.428,72.223 L45.463,72.225 C45.472,72.225 45.568,72.229 45.731,72.229 C46.196,72.229 47.789,72.186 48.793,71.626 C52.457,69.591 56.861,64.792 57.225,64.122 C57.36,63.866 57.574,63.327 57.83,62.216 L57.966,61.626 L58.59,61.669 C58.652,61.669 58.831,61.648 59.139,61.466 C59.891,61.02 62.216,58.29 62.637,56.866 C62.992,55.661 62.882,52.267 62.147,51.054 C62.03,50.857 61.923,50.773 61.872,50.765 C61.59,50.708 61.349,50.54 61.196,50.294 C61.182,50.273 61.171,50.251 61.159,50.228 L61.063,50.372 L61.089,50.075 C60.885,49.507 61.059,48.722 61.285,47.898 L61.31,47.609 C61.513,45.376 60.896,43.456 59.476,41.902 C56.929,39.114 51.677,37.45 45.426,37.45 C41.856,37.45 38.278,38.721 35.609,40.933 C32.811,43.253 31.27,46.376 31.27,49.722 C31.27,50.068 31.286,50.41 31.317,50.743 L31.575,53.522 L30.023,51.204 C29.768,50.823 29.422,50.677 28.983,50.765 C28.929,50.775 28.825,50.857 28.705,51.054 C27.97,52.269 27.86,55.659 28.217,56.866 C28.638,58.29 30.962,61.017 31.716,61.468 C32.023,61.651 32.2,61.669 32.263,61.669 L32.281,61.669 L32.886,61.624 L33.023,62.216 C33.28,63.327 33.494,63.866 33.628,64.122 C33.99,64.792 38.398,69.593 42.06,71.626 C43.066,72.186 44.659,72.229 45.122,72.229 C45.284,72.229 45.383,72.225 45.392,72.225 L45.428,72.223 Z" id="Shape"></path>
            <path d="M28.033,49.948 L32.071,54.552 L31.645,50.868 L34.975,53.985 C34.975,53.985 34.267,49.733 35.117,47.348 C36.204,45.034 39.014,43.71 39.014,43.71 C39.014,43.71 38.686,52.068 39.368,55.612 C41.589,51.337 48.366,43.214 52.051,41.796 C53.113,46.165 51.626,53.036 50.989,56.318 C54.25,52.825 58.5,46.071 58.712,44.63 C58.712,44.63 59.203,44.882 59.42,45.409 C59.792,46.312 58.429,51.29 57.722,53.273 C58.712,52.681 60.627,51.218 60.627,51.218 L58.855,54.972 C58.855,54.972 63.601,51.878 64.097,51.076 C65.113,49.638 67.074,38.606 67.074,38.606 L37.035,31.876 L25.841,40.308 L28.033,49.948 Z" id="Path"></path>
        </g>
    </g>
</svg>